<?xml version="1.0" encoding="utf-8"?>
<!-- Generator: Adobe Illustrator 25.0.0, SVG Export Plug-In . SVG Version: 6.00 Build 0)  -->
<svg version="1.1" xmlns="http://www.w3.org/2000/svg" xmlns:xlink="http://www.w3.org/1999/xlink" x="0px" y="0px"
	 viewBox="0 0 54 54" style="enable-background:new 0 0 54 54;" xml:space="preserve">
<style type="text/css">
	.st0{fill:#FFFFFF;}
	.st1{display:none;}
	.st2{display:inline;}
	.st3{display:inline;clip-path:url(#SVGID_2_);}
	.st4{opacity:0.25;clip-path:url(#SVGID_4_);}
	.st5{opacity:0.25;}
	.st6{clip-path:url(#SVGID_6_);}
	.st7{fill:#FFFFFF;stroke:#BC7E4F;stroke-width:0.9988;stroke-miterlimit:10;}
	.st8{display:inline;clip-path:url(#SVGID_8_);}
	.st9{opacity:0.25;clip-path:url(#SVGID_10_);}
	.st10{clip-path:url(#SVGID_12_);}
	.st11{display:inline;clip-path:url(#SVGID_14_);}
	.st12{opacity:0.25;clip-path:url(#SVGID_16_);}
	.st13{clip-path:url(#SVGID_18_);}
	.st14{display:inline;clip-path:url(#SVGID_20_);}
	.st15{opacity:0.25;clip-path:url(#SVGID_22_);}
	.st16{clip-path:url(#SVGID_24_);}
	.st17{display:inline;clip-path:url(#SVGID_26_);}
	.st18{opacity:0.25;clip-path:url(#SVGID_28_);}
	.st19{clip-path:url(#SVGID_30_);}
	.st20{display:inline;clip-path:url(#SVGID_32_);}
	.st21{opacity:0.25;clip-path:url(#SVGID_34_);}
	.st22{clip-path:url(#SVGID_36_);}
	.st23{fill:#276EF1;}
	.st24{fill:#276EF1;stroke:#231F20;stroke-width:0.25;stroke-miterlimit:10;}
	.st25{opacity:0.3;fill:url(#SVGID_37_);}
	.st26{fill:url(#SVGID_38_);}
	.st27{fill:url(#SVGID_39_);}
	.st28{fill:url(#SVGID_40_);}
	.st29{fill:url(#SVGID_41_);}
	.st30{fill:url(#SVGID_42_);}
	.st31{fill:url(#SVGID_43_);}
	.st32{fill:url(#SVGID_44_);}
	.st33{fill:url(#SVGID_45_);}
	.st34{fill:url(#SVGID_46_);}
	.st35{fill:url(#SVGID_47_);}
	.st36{fill:url(#SVGID_48_);}
	.st37{fill:url(#SVGID_49_);}
	.st38{fill:url(#SVGID_50_);}
	.st39{fill:url(#SVGID_51_);}
	.st40{fill:url(#SVGID_52_);}
	.st41{fill:url(#SVGID_53_);}
	.st42{fill:url(#SVGID_54_);}
	.st43{fill:url(#SVGID_55_);}
	.st44{fill:url(#SVGID_56_);}
	.st45{fill:url(#SVGID_57_);}
	.st46{fill:url(#SVGID_58_);}
	.st47{fill:url(#SVGID_59_);}
	.st48{fill:url(#SVGID_60_);}
	.st49{fill:url(#SVGID_61_);}
	.st50{fill:url(#SVGID_62_);}
	.st51{fill:url(#SVGID_63_);}
	.st52{fill:url(#SVGID_64_);}
	.st53{fill:url(#SVGID_65_);}
	.st54{fill:url(#SVGID_66_);}
	.st55{fill:url(#SVGID_67_);}
	.st56{fill:url(#SVGID_68_);}
	.st57{fill:url(#SVGID_69_);}
	.st58{fill:url(#SVGID_70_);}
	.st59{fill:url(#SVGID_71_);}
	.st60{fill:url(#SVGID_72_);}
	.st61{fill:url(#SVGID_73_);}
	.st62{fill:url(#SVGID_74_);}
	.st63{opacity:0.3;fill:url(#SVGID_75_);}
	.st64{fill:url(#SVGID_76_);}
	.st65{fill:url(#SVGID_77_);}
	.st66{fill:url(#SVGID_78_);}
	.st67{fill:url(#SVGID_79_);}
	.st68{fill:url(#SVGID_80_);}
	.st69{fill:url(#SVGID_81_);}
	.st70{fill:url(#SVGID_82_);}
	.st71{fill:url(#SVGID_83_);}
	.st72{fill:url(#SVGID_84_);}
	.st73{fill:url(#SVGID_85_);}
	.st74{fill:url(#SVGID_86_);}
	.st75{fill:url(#SVGID_87_);}
	.st76{fill:url(#SVGID_88_);}
	.st77{fill:url(#SVGID_89_);}
	.st78{fill:url(#SVGID_90_);}
	.st79{fill:url(#SVGID_91_);}
	.st80{fill:url(#SVGID_92_);}
	.st81{fill:url(#SVGID_93_);}
	.st82{fill:url(#SVGID_94_);}
	.st83{fill:url(#SVGID_95_);}
	.st84{fill:url(#SVGID_96_);}
	.st85{fill:url(#SVGID_97_);}
	.st86{fill:url(#SVGID_98_);}
	.st87{fill:url(#SVGID_99_);}
	.st88{fill:url(#SVGID_100_);}
	.st89{fill:url(#SVGID_101_);}
	.st90{fill:url(#SVGID_102_);}
	.st91{fill:url(#SVGID_103_);}
	.st92{fill:url(#SVGID_104_);}
	.st93{fill:url(#SVGID_105_);}
	.st94{fill:url(#SVGID_106_);}
	.st95{fill:url(#SVGID_107_);}
	.st96{fill:url(#SVGID_108_);}
	.st97{fill:url(#SVGID_109_);}
	.st98{fill:url(#SVGID_110_);}
	.st99{fill:url(#SVGID_111_);}
	.st100{fill:url(#SVGID_112_);}
	.st101{fill:url(#SVGID_113_);}
	.st102{fill:url(#SVGID_114_);}
	.st103{fill:url(#SVGID_115_);}
	.st104{fill:url(#SVGID_116_);}
	.st105{fill:url(#SVGID_117_);}
	.st106{fill:url(#SVGID_118_);}
	.st107{fill:url(#SVGID_119_);}
	.st108{fill:url(#SVGID_120_);}
	.st109{fill:url(#SVGID_121_);}
	.st110{fill:url(#SVGID_122_);}
	.st111{fill:url(#SVGID_123_);}
	.st112{fill:url(#SVGID_124_);}
	.st113{opacity:0.3;fill:url(#SVGID_125_);}
	.st114{fill:url(#SVGID_126_);}
	.st115{fill:url(#SVGID_127_);}
	.st116{fill:url(#SVGID_128_);}
	.st117{fill:url(#SVGID_129_);}
	.st118{fill:url(#SVGID_130_);}
	.st119{fill:url(#SVGID_131_);}
	.st120{fill:url(#SVGID_132_);}
	.st121{fill:url(#SVGID_133_);}
	.st122{fill:url(#SVGID_134_);}
	.st123{fill:url(#SVGID_135_);}
	.st124{fill:url(#SVGID_136_);}
	.st125{fill:url(#SVGID_137_);}
	.st126{fill:url(#SVGID_138_);}
	.st127{fill:url(#SVGID_139_);}
	.st128{fill:url(#SVGID_140_);}
	.st129{fill:url(#SVGID_141_);}
	.st130{fill:url(#SVGID_142_);}
	.st131{fill:url(#SVGID_143_);}
	.st132{fill:url(#SVGID_144_);}
	.st133{fill:url(#SVGID_145_);}
	.st134{fill:url(#SVGID_146_);}
	.st135{fill:url(#SVGID_147_);}
	.st136{fill:url(#SVGID_148_);}
	.st137{fill:url(#SVGID_149_);}
	.st138{fill:url(#SVGID_150_);}
	.st139{fill:url(#SVGID_151_);}
	.st140{fill:url(#SVGID_152_);}
	.st141{fill:url(#SVGID_153_);}
	.st142{fill:url(#SVGID_154_);}
	.st143{fill:url(#SVGID_155_);}
	.st144{fill:url(#SVGID_156_);}
	.st145{fill:url(#SVGID_157_);}
	.st146{fill:url(#SVGID_158_);}
	.st147{fill:url(#SVGID_159_);}
	.st148{fill:url(#SVGID_160_);}
	.st149{fill:url(#SVGID_161_);}
	.st150{fill:url(#SVGID_162_);}
	.st151{fill:url(#SVGID_163_);}
	.st152{fill:url(#SVGID_164_);}
	.st153{opacity:0.3;fill:url(#SVGID_165_);}
	.st154{fill:url(#SVGID_166_);}
	.st155{fill:url(#SVGID_167_);}
	.st156{fill:url(#SVGID_168_);}
	.st157{fill:url(#SVGID_169_);}
	.st158{fill:url(#SVGID_170_);}
	.st159{fill:url(#SVGID_171_);}
	.st160{fill:url(#SVGID_172_);}
	.st161{fill:url(#SVGID_173_);}
	.st162{fill:url(#SVGID_174_);}
	.st163{fill:url(#SVGID_175_);}
	.st164{fill:url(#SVGID_176_);}
	.st165{fill:url(#SVGID_177_);}
	.st166{fill:url(#SVGID_178_);}
	.st167{fill:url(#SVGID_179_);}
	.st168{fill:url(#SVGID_180_);}
	.st169{opacity:0.3;fill:url(#SVGID_181_);}
	.st170{fill:url(#SVGID_182_);}
	.st171{fill:url(#SVGID_183_);}
	.st172{fill:url(#SVGID_184_);}
	.st173{fill:url(#SVGID_185_);}
	.st174{fill:url(#SVGID_186_);}
	.st175{fill:url(#SVGID_187_);}
	.st176{fill:url(#SVGID_188_);}
	.st177{fill:url(#SVGID_189_);}
	.st178{fill:url(#SVGID_190_);}
	.st179{fill:url(#SVGID_191_);}
	.st180{fill:url(#SVGID_192_);}
	.st181{fill:url(#SVGID_193_);}
	.st182{fill:url(#SVGID_194_);}
	.st183{fill:url(#SVGID_195_);}
	.st184{fill:url(#SVGID_196_);}
	.st185{opacity:0.3;fill:url(#SVGID_197_);}
	.st186{fill:url(#SVGID_198_);}
	.st187{fill:url(#SVGID_199_);}
	.st188{fill:url(#SVGID_200_);}
	.st189{fill:#FBD291;}
	.st190{fill:url(#SVGID_201_);}
	.st191{fill:url(#SVGID_202_);}
	.st192{fill:url(#SVGID_203_);}
	.st193{fill:url(#SVGID_204_);}
	.st194{fill:url(#SVGID_205_);}
	.st195{fill:url(#SVGID_206_);}
	.st196{fill:url(#SVGID_207_);}
	.st197{fill:url(#SVGID_208_);}
	.st198{fill:url(#SVGID_209_);}
	.st199{fill:url(#SVGID_210_);}
	.st200{fill:url(#SVGID_211_);}
	.st201{fill:url(#SVGID_212_);}
	.st202{fill:url(#SVGID_213_);}
	.st203{fill:url(#SVGID_214_);}
	.st204{fill:url(#SVGID_215_);}
	.st205{fill:url(#SVGID_216_);}
	.st206{fill:url(#SVGID_217_);}
	.st207{fill:url(#SVGID_218_);}
	.st208{fill:url(#SVGID_219_);}
	.st209{fill:url(#SVGID_220_);}
	.st210{fill:url(#SVGID_221_);}
	.st211{fill:url(#SVGID_222_);}
	.st212{fill:url(#SVGID_223_);}
	.st213{fill:url(#SVGID_224_);}
	.st214{fill:url(#SVGID_225_);}
	.st215{fill:url(#SVGID_226_);}
	.st216{fill:url(#SVGID_227_);}
	.st217{fill:url(#SVGID_228_);}
	.st218{fill:url(#SVGID_229_);}
	.st219{fill:url(#SVGID_230_);}
	.st220{fill:url(#SVGID_231_);}
	.st221{fill:url(#SVGID_232_);}
</style>
<g id="Layer_1">
	<g>
		<g>
			<path class="st0" d="M7.8,15c-1.1-1-2.8-0.8-3.8,0.3c-1,1.1-0.8,2.8,0.3,3.8c1.1,1,2.8,0.8,3.8-0.3C9.1,17.7,9,16,7.8,15z"/>
			<path class="st0" d="M11.6,11.8c0.7,0,1.3-0.6,1.3-1.3c0-0.7-0.6-1.3-1.3-1.3s-1.3,0.6-1.3,1.3C10.3,11.2,10.9,11.8,11.6,11.8z"
				/>
			<path class="st0" d="M8.1,38.3c1-1.1,0.8-2.8-0.3-3.8c-1.1-1-2.8-0.8-3.8,0.3c-1,1.1-0.8,2.8,0.3,3.8C5.5,39.5,7.1,39.4,8.1,38.3
				z"/>
			<path class="st0" d="M10.3,43.6c0,0.7,0.6,1.3,1.3,1.3c0.7,0,1.3-0.6,1.3-1.3s-0.6-1.3-1.3-1.3C10.9,42.3,10.3,42.9,10.3,43.6z"
				/>
			<path class="st0" d="M7.2,29.8c1.5-1.6,1.5-4.1,0-5.6c-1.6-1.5-4.1-1.5-5.6,0c-1.5,1.6-1.5,4.1,0,5.6C3.1,31.4,5.6,31.4,7.2,29.8
				z"/>
			<path class="st0" d="M53.4,24.6c-0.3-2.9-1-5.8-2.2-8.3C47.2,6.9,37.8,0.4,26.9,0.4c-4,0-7.8,0.9-11.2,2.5c0,0-0.1,0-0.1,0.1
				c-0.4,0.2-0.6,0.6-0.6,1.1c0,0.2,0.1,0.4,0.1,0.6l0,0l2.3,4.3c0,0,0,0,0,0l0,0c0,0,0,0,0,0c0.2,0.4,0.6,0.6,1.1,0.6
				c0.1,0,0.2,0,0.4-0.1c0,0,0,0,0,0c0,0,0,0,0,0c0.1,0,0.1,0,0.2-0.1c2.4-1.1,5.1-1.7,7.9-1.7c0.2,0,0.3,0,0.5,0c0,0,0.1,0,0.1,0
				c0.2,0,0.3,0,0.5,0c0,0,0.1,0,0.1,0c0.2,0,0.3,0,0.5,0c0,0,0,0,0,0c0.2,0,0.3,0,0.5,0c0,0,0.1,0,0.1,0c0.2,0,0.3,0,0.5,0.1
				c0,0,0.1,0,0.1,0c0.2,0,0.3,0,0.5,0.1c0,0,0,0,0.1,0c0.2,0,0.3,0.1,0.5,0.1c0,0,0,0,0.1,0c0.2,0,0.3,0.1,0.5,0.1c0,0,0.1,0,0.1,0
				c0.2,0,0.3,0.1,0.5,0.1c0,0,0,0,0.1,0c0.1,0,0.3,0.1,0.4,0.1c0,0,0,0,0,0c0.2,0,0.3,0.1,0.5,0.1c0,0,0.1,0,0.1,0
				c0.1,0,0.3,0.1,0.4,0.2c0,0,0,0,0.1,0C33.6,9,33.8,9,33.9,9.1c0,0,0,0,0,0c0.1,0.1,0.3,0.1,0.4,0.2c0,0,0.1,0,0.1,0
				c0.1,0.1,0.3,0.1,0.4,0.2c0,0,0.1,0,0.1,0c0.1,0.1,0.3,0.1,0.4,0.2c0.1,0.1,0.2,0.1,0.4,0.2c0,0,0,0,0.1,0c0.1,0,0.2,0.1,0.3,0.1
				c0,0,0,0,0.1,0c0,0,0,0,0,0c0.1,0,0.1,0.1,0.2,0.1c0,0,0,0,0.1,0c0,0,0.1,0,0.1,0c0.1,0,0.1,0.1,0.2,0.1c0,0,0,0,0,0c0,0,0,0,0,0
				c0.2,0.1,0.3,0.2,0.5,0.3c0,0,0,0,0.1,0c0.2,0.1,0.3,0.2,0.5,0.3c0,0,0.1,0,0.1,0.1c0.2,0.1,0.3,0.2,0.5,0.3c0,0,0,0,0.1,0
				c0.3,0.2,0.6,0.5,0.9,0.7c0,0,0,0,0.1,0c0.1,0.1,0.3,0.2,0.4,0.4c0,0,0,0,0.1,0.1c0.1,0.1,0.3,0.2,0.4,0.4c0,0,0,0,0.1,0.1
				c0.3,0.3,0.6,0.5,0.8,0.8c0,0,0,0,0.1,0.1c0.1,0.1,0.2,0.3,0.4,0.4c0,0,0,0,0.1,0.1c0.1,0.1,0.2,0.3,0.4,0.4c0,0,0,0,0.1,0.1
				c0.2,0.3,0.5,0.6,0.7,0.9c0,0,0,0,0,0.1c0.1,0.1,0.1,0.2,0.2,0.3c0,0.1,0.1,0.1,0.1,0.2c0,0,0,0.1,0.1,0.1
				c0.1,0.2,0.2,0.3,0.3,0.5c0,0,0,0,0,0.1c0.1,0.2,0.2,0.3,0.3,0.5h0c0,0,0,0,0,0c0,0,0.1,0.1,0.1,0.1c0,0.1,0.1,0.1,0.1,0.2
				c0.1,0.2,0.1,0.4,0.1,0.6c0,0.7-0.6,1.2-1.2,1.2h-6.6c-2.2-2.7-5.5-4.5-9.3-4.5c-5.7,0-10.5,4-11.6,9.4c-0.2,0.8-0.2,1.6-0.2,2.4
				c0,6.5,5.3,11.8,11.8,11.8c3.8,0,7.2-1.8,9.4-4.6c0,0,0,0,0,0c0.2-0.2,0.3-0.5,0.3-0.8c0-0.7-0.5-1.2-1.2-1.3h-0.3H28
				c-0.6-0.1-1-0.5-1.1-1.1v-5.1c0-0.7,0.6-1.2,1.2-1.2h5.5h4.9H45c0.1,0,0.2,0,0.3,0.1c0.5,0.1,0.8,0.6,0.8,1c0,0,0,0,0,0
				c0,0.3,0,0.5,0,0.8c0,0.2,0,0.3,0,0.5c0,0,0,0,0,0c0,0,0,0,0,0c0,0.5,0,1-0.1,1.5c-0.3,3.4-1.4,6.5-3.2,9.2h0
				c-0.1,0.1-0.1,0.2-0.2,0.3c0,0,0,0,0,0.1c-0.1,0.2-0.2,0.3-0.3,0.5l0,0c-0.1,0.1-0.2,0.3-0.3,0.4c0,0,0,0.1-0.1,0.1
				c-0.1,0.1-0.2,0.3-0.3,0.4c0,0,0,0-0.1,0.1c-0.1,0.1-0.2,0.3-0.3,0.4c0,0-0.1,0.1-0.1,0.1c-0.1,0.1-0.2,0.2-0.4,0.4c0,0,0,0,0,0
				c-0.1,0.1-0.3,0.3-0.4,0.4c0,0,0,0-0.1,0.1c-0.1,0.1-0.3,0.3-0.4,0.4c0,0,0,0-0.1,0.1c-0.1,0.1-0.3,0.2-0.4,0.4c0,0,0,0-0.1,0
				c-0.3,0.2-0.6,0.5-0.9,0.7c0,0,0,0-0.1,0c-0.2,0.1-0.3,0.2-0.5,0.3c0,0-0.1,0-0.1,0.1c-0.2,0.1-0.3,0.2-0.5,0.3c0,0,0,0-0.1,0
				c-0.2,0.1-0.3,0.2-0.5,0.3c0,0,0,0,0,0c0,0,0,0,0,0c-0.1,0-0.1,0.1-0.2,0.1c0,0-0.1,0-0.1,0c0,0,0,0-0.1,0
				c-0.1,0-0.1,0.1-0.2,0.1c0,0,0,0,0,0c0,0,0,0-0.1,0c-0.1,0-0.2,0.1-0.3,0.1c0,0,0,0-0.1,0c-0.1,0.1-0.2,0.1-0.4,0.2
				c-0.1,0.1-0.3,0.1-0.4,0.2c0,0-0.1,0-0.1,0c-0.1,0.1-0.3,0.1-0.4,0.2c0,0-0.1,0-0.1,0c-0.1,0.1-0.3,0.1-0.4,0.2c0,0,0,0,0,0
				c-0.1,0.1-0.3,0.1-0.4,0.2c0,0,0,0-0.1,0c-0.1,0.1-0.3,0.1-0.4,0.2c0,0-0.1,0-0.1,0c-0.2,0-0.3,0.1-0.5,0.1c0,0,0,0,0,0
				c-0.1,0-0.3,0.1-0.4,0.1c0,0,0,0-0.1,0c-0.2,0-0.3,0.1-0.5,0.1c0,0-0.1,0-0.1,0c-0.2,0-0.3,0.1-0.5,0.1c0,0,0,0-0.1,0
				c-0.2,0-0.3,0.1-0.5,0.1c0,0,0,0-0.1,0c-0.2,0-0.3,0.1-0.5,0.1c0,0-0.1,0-0.1,0c-0.2,0-0.3,0-0.5,0.1c0,0-0.1,0-0.1,0
				c-0.2,0-0.3,0-0.5,0c0,0,0,0,0,0c-0.2,0-0.3,0-0.5,0c0,0-0.1,0-0.1,0c-0.2,0-0.3,0-0.5,0c0,0-0.1,0-0.1,0c-0.2,0-0.3,0-0.5,0
				c-2.8,0-5.5-0.6-7.9-1.7c-0.1,0-0.1-0.1-0.2-0.1c0,0,0,0,0,0c0,0,0,0,0,0c-0.1,0-0.2-0.1-0.4-0.1c-0.4,0-0.8,0.2-1.1,0.6
				c0,0,0,0,0,0l0,0c0,0,0,0,0,0l-2.3,4.3l0,0c-0.1,0.2-0.1,0.4-0.1,0.6c0,0.5,0.3,0.9,0.6,1.1c0,0,0.1,0,0.1,0.1
				c3.4,1.6,7.2,2.5,11.2,2.5c9.6,0,18-5.1,22.7-12.7h0c2.5-4,3.9-8.8,3.9-13.9C53.5,26.2,53.5,25.4,53.4,24.6z"/>
		</g>
	</g>
	<g class="st1">
		<defs>
			<path id="SVGID_1_" d="M53.4,24.6c-0.3-2.9-1-5.8-2.2-8.3C47.2,6.9,37.8,0.4,26.9,0.4c-4,0-7.8,0.9-11.2,2.5c0,0-0.1,0-0.1,0.1
				c-0.4,0.2-0.6,0.6-0.6,1.1c0,0.2,0.1,0.4,0.1,0.6l0,0l2.3,4.3c0,0,0,0,0,0l0,0c0,0,0,0,0,0c0.2,0.4,0.6,0.6,1.1,0.6
				c0.1,0,0.2,0,0.4-0.1c0,0,0,0,0,0c0,0,0,0,0,0c0.1,0,0.1,0,0.2-0.1c2.4-1.1,5.1-1.7,7.9-1.7c0.2,0,0.3,0,0.5,0c0,0,0.1,0,0.1,0
				c0.2,0,0.3,0,0.5,0c0,0,0.1,0,0.1,0c0.2,0,0.3,0,0.5,0c0,0,0,0,0,0c0.2,0,0.3,0,0.5,0c0,0,0.1,0,0.1,0c0.2,0,0.3,0,0.5,0.1
				c0,0,0.1,0,0.1,0c0.2,0,0.3,0,0.5,0.1c0,0,0,0,0.1,0c0.2,0,0.3,0.1,0.5,0.1c0,0,0,0,0.1,0c0.2,0,0.3,0.1,0.5,0.1c0,0,0.1,0,0.1,0
				c0.2,0,0.3,0.1,0.5,0.1c0,0,0,0,0.1,0c0.1,0,0.3,0.1,0.4,0.1c0,0,0,0,0,0c0.2,0,0.3,0.1,0.5,0.1c0,0,0.1,0,0.1,0
				c0.1,0,0.3,0.1,0.4,0.2c0,0,0,0,0.1,0C33.6,9,33.8,9,33.9,9.1c0,0,0,0,0,0c0.1,0.1,0.3,0.1,0.4,0.2c0,0,0.1,0,0.1,0
				c0.1,0.1,0.3,0.1,0.4,0.2c0,0,0.1,0,0.1,0c0.1,0.1,0.3,0.1,0.4,0.2c0.1,0.1,0.2,0.1,0.4,0.2c0,0,0,0,0.1,0c0.1,0,0.2,0.1,0.3,0.1
				c0,0,0,0,0.1,0c0,0,0,0,0,0c0.1,0,0.1,0.1,0.2,0.1c0,0,0,0,0.1,0c0,0,0.1,0,0.1,0c0.1,0,0.1,0.1,0.2,0.1c0,0,0,0,0,0c0,0,0,0,0,0
				c0.2,0.1,0.3,0.2,0.5,0.3c0,0,0,0,0.1,0c0.2,0.1,0.3,0.2,0.5,0.3c0,0,0.1,0,0.1,0.1c0.2,0.1,0.3,0.2,0.5,0.3c0,0,0,0,0.1,0
				c0.3,0.2,0.6,0.5,0.9,0.7c0,0,0,0,0.1,0c0.1,0.1,0.3,0.2,0.4,0.4c0,0,0,0,0.1,0.1c0.1,0.1,0.3,0.2,0.4,0.4c0,0,0,0,0.1,0.1
				c0.3,0.3,0.6,0.5,0.8,0.8c0,0,0,0,0.1,0.1c0.1,0.1,0.2,0.3,0.4,0.4c0,0,0,0,0.1,0.1c0.1,0.1,0.2,0.3,0.4,0.4c0,0,0,0,0.1,0.1
				c0.2,0.3,0.5,0.6,0.7,0.9c0,0,0,0,0,0.1c0.1,0.1,0.1,0.2,0.2,0.3c0,0.1,0.1,0.1,0.1,0.2c0,0,0,0.1,0.1,0.1
				c0.1,0.2,0.2,0.3,0.3,0.5c0,0,0,0,0,0.1c0.1,0.2,0.2,0.3,0.3,0.5h0c0,0,0,0,0,0c0,0,0.1,0.1,0.1,0.1c0,0.1,0.1,0.1,0.1,0.2
				c0.1,0.2,0.1,0.4,0.1,0.6c0,0.7-0.6,1.2-1.2,1.2h-6.6c-2.2-2.7-5.5-4.5-9.3-4.5c-5.7,0-10.5,4-11.6,9.4c-0.2,0.8-0.2,1.6-0.2,2.4
				c0,6.5,5.3,11.8,11.8,11.8c3.8,0,7.2-1.8,9.4-4.6c0,0,0,0,0,0c0.2-0.2,0.3-0.5,0.3-0.8c0-0.7-0.5-1.2-1.2-1.3h-0.3H28
				c-0.6-0.1-1-0.5-1.1-1.1v-5.1c0-0.7,0.6-1.2,1.2-1.2h5.5h4.9H45c0.1,0,0.2,0,0.3,0.1c0.5,0.1,0.8,0.6,0.8,1c0,0,0,0,0,0
				c0,0.3,0,0.5,0,0.8c0,0.2,0,0.3,0,0.5c0,0,0,0,0,0c0,0,0,0,0,0c0,0.5,0,1-0.1,1.5c-0.3,3.4-1.4,6.5-3.2,9.2h0
				c-0.1,0.1-0.1,0.2-0.2,0.3c0,0,0,0,0,0.1c-0.1,0.2-0.2,0.3-0.3,0.5l0,0c-0.1,0.1-0.2,0.3-0.3,0.4c0,0,0,0.1-0.1,0.1
				c-0.1,0.1-0.2,0.3-0.3,0.4c0,0,0,0-0.1,0.1c-0.1,0.1-0.2,0.3-0.3,0.4c0,0-0.1,0.1-0.1,0.1c-0.1,0.1-0.2,0.2-0.4,0.4c0,0,0,0,0,0
				c-0.1,0.1-0.3,0.3-0.4,0.4c0,0,0,0-0.1,0.1c-0.1,0.1-0.3,0.3-0.4,0.4c0,0,0,0-0.1,0.1c-0.1,0.1-0.3,0.2-0.4,0.4c0,0,0,0-0.1,0
				c-0.3,0.2-0.6,0.5-0.9,0.7c0,0,0,0-0.1,0c-0.2,0.1-0.3,0.2-0.5,0.3c0,0-0.1,0-0.1,0.1c-0.2,0.1-0.3,0.2-0.5,0.3c0,0,0,0-0.1,0
				c-0.2,0.1-0.3,0.2-0.5,0.3c0,0,0,0,0,0c0,0,0,0,0,0c-0.1,0-0.1,0.1-0.2,0.1c0,0-0.1,0-0.1,0c0,0,0,0-0.1,0
				c-0.1,0-0.1,0.1-0.2,0.1c0,0,0,0,0,0c0,0,0,0-0.1,0c-0.1,0-0.2,0.1-0.3,0.1c0,0,0,0-0.1,0c-0.1,0.1-0.2,0.1-0.4,0.2
				c-0.1,0.1-0.3,0.1-0.4,0.2c0,0-0.1,0-0.1,0c-0.1,0.1-0.3,0.1-0.4,0.2c0,0-0.1,0-0.1,0c-0.1,0.1-0.3,0.1-0.4,0.2c0,0,0,0,0,0
				c-0.1,0.1-0.3,0.1-0.4,0.2c0,0,0,0-0.1,0c-0.1,0.1-0.3,0.1-0.4,0.2c0,0-0.1,0-0.1,0c-0.2,0-0.3,0.1-0.5,0.1c0,0,0,0,0,0
				c-0.1,0-0.3,0.1-0.4,0.1c0,0,0,0-0.1,0c-0.2,0-0.3,0.1-0.5,0.1c0,0-0.1,0-0.1,0c-0.2,0-0.3,0.1-0.5,0.1c0,0,0,0-0.1,0
				c-0.2,0-0.3,0.1-0.5,0.1c0,0,0,0-0.1,0c-0.2,0-0.3,0.1-0.5,0.1c0,0-0.1,0-0.1,0c-0.2,0-0.3,0-0.5,0.1c0,0-0.1,0-0.1,0
				c-0.2,0-0.3,0-0.5,0c0,0,0,0,0,0c-0.2,0-0.3,0-0.5,0c0,0-0.1,0-0.1,0c-0.2,0-0.3,0-0.5,0c0,0-0.1,0-0.1,0c-0.2,0-0.3,0-0.5,0
				c-2.8,0-5.5-0.6-7.9-1.7c-0.1,0-0.1-0.1-0.2-0.1c0,0,0,0,0,0c0,0,0,0,0,0c-0.1,0-0.2-0.1-0.4-0.1c-0.4,0-0.8,0.2-1.1,0.6
				c0,0,0,0,0,0l0,0c0,0,0,0,0,0l-2.3,4.3l0,0c-0.1,0.2-0.1,0.4-0.1,0.6c0,0.5,0.3,0.9,0.6,1.1c0,0,0.1,0,0.1,0.1
				c3.4,1.6,7.2,2.5,11.2,2.5c9.6,0,18-5.1,22.7-12.7h0c2.5-4,3.9-8.8,3.9-13.9C53.5,26.2,53.5,25.4,53.4,24.6z"/>
		</defs>
		<clipPath id="SVGID_2_" class="st2">
			<use xlink:href="#SVGID_1_"  style="overflow:visible;"/>
		</clipPath>
		<g class="st3">
			<defs>
				<rect id="SVGID_3_" x="-269.4" y="-155.4" width="596.3" height="255.6"/>
			</defs>
			<clipPath id="SVGID_4_">
				<use xlink:href="#SVGID_3_"  style="overflow:visible;"/>
			</clipPath>
			<g class="st4">
				<defs>
					<rect id="SVGID_5_" x="-269.4" y="-211.3" class="st5" width="596.3" height="397.5"/>
				</defs>
				<clipPath id="SVGID_6_">
					<use xlink:href="#SVGID_5_"  style="overflow:visible;"/>
				</clipPath>
				<g class="st6">
					<g>
						<g>
							<circle class="st7" cx="51.4" cy="-6.6" r="11.9"/>
							<circle class="st7" cx="51.4" cy="-6.6" r="9.1"/>
						</g>
						<g>
							<circle class="st7" cx="33.1" cy="-6.6" r="11.9"/>
							<circle class="st7" cx="33.1" cy="-6.6" r="9.1"/>
						</g>
						<g>
							<circle class="st7" cx="14.9" cy="-6.6" r="11.9"/>
							<circle class="st7" cx="14.9" cy="-6.6" r="9.1"/>
						</g>
						<g>
							<circle class="st7" cx="-3.4" cy="-6.6" r="11.9"/>
							<circle class="st7" cx="-3.4" cy="-6.6" r="9.1"/>
						</g>
					</g>
					<g>
						<g>
							<circle class="st7" cx="60.9" cy="5.3" r="11.9"/>
							<circle class="st7" cx="60.9" cy="5.3" r="9.1"/>
						</g>
						<g>
							<circle class="st7" cx="42.7" cy="5.3" r="11.9"/>
							<circle class="st7" cx="42.7" cy="5.3" r="9.1"/>
							<circle class="st7" cx="42.7" cy="5.3" r="6"/>
						</g>
						<g>
							<circle class="st7" cx="24.4" cy="5.3" r="11.9"/>
							<circle class="st7" cx="24.4" cy="5.3" r="9.1"/>
							<circle class="st7" cx="24.4" cy="5.3" r="6"/>
						</g>
						<g>
							<circle class="st7" cx="6.1" cy="5.3" r="11.9"/>
							<circle class="st7" cx="6.1" cy="5.3" r="9.1"/>
							<circle class="st7" cx="6.1" cy="5.3" r="6"/>
						</g>
						<g>
							<circle class="st7" cx="-12.1" cy="5.3" r="11.9"/>
						</g>
					</g>
					<g>
						<g>
							<circle class="st7" cx="51.4" cy="17.2" r="11.9"/>
							<circle class="st7" cx="51.4" cy="17.2" r="9.1"/>
							<circle class="st7" cx="51.4" cy="17.2" r="6"/>
						</g>
						<g>
							<circle class="st7" cx="33.1" cy="17.2" r="11.9"/>
							<circle class="st7" cx="33.1" cy="17.2" r="9.1"/>
							<circle class="st7" cx="33.1" cy="17.2" r="6"/>
						</g>
						<g>
							<circle class="st7" cx="14.9" cy="17.2" r="11.9"/>
							<circle class="st7" cx="14.9" cy="17.2" r="9.1"/>
							<circle class="st7" cx="14.9" cy="17.2" r="6"/>
						</g>
						<g>
							<circle class="st7" cx="-3.4" cy="17.2" r="11.9"/>
							<circle class="st7" cx="-3.4" cy="17.2" r="9.1"/>
							<circle class="st7" cx="-3.4" cy="17.2" r="6"/>
						</g>
					</g>
					<g>
						<g>
							<circle class="st7" cx="60.9" cy="29.1" r="11.9"/>
							<circle class="st7" cx="60.9" cy="29.1" r="9.1"/>
						</g>
						<g>
							<circle class="st7" cx="42.7" cy="29.1" r="11.9"/>
							<circle class="st7" cx="42.7" cy="29.1" r="9.1"/>
							<circle class="st7" cx="42.7" cy="29.1" r="6"/>
						</g>
						<g>
							<circle class="st7" cx="24.4" cy="29.1" r="11.9"/>
							<circle class="st7" cx="24.4" cy="29.1" r="9.1"/>
							<circle class="st7" cx="24.4" cy="29.1" r="6"/>
						</g>
						<g>
							<circle class="st7" cx="6.1" cy="29.1" r="11.9"/>
							<circle class="st7" cx="6.1" cy="29.1" r="9.1"/>
							<circle class="st7" cx="6.1" cy="29.1" r="6"/>
						</g>
						<g>
							<circle class="st7" cx="-12.1" cy="29.1" r="11.9"/>
						</g>
					</g>
					<g>
						<g>
							<circle class="st7" cx="51.4" cy="41" r="11.9"/>
							<circle class="st7" cx="51.4" cy="41" r="9.1"/>
							<circle class="st7" cx="51.4" cy="41" r="6"/>
						</g>
						<g>
							<circle class="st7" cx="33.1" cy="41" r="11.9"/>
							<circle class="st7" cx="33.1" cy="41" r="9.1"/>
							<circle class="st7" cx="33.1" cy="41" r="6"/>
						</g>
						<g>
							<circle class="st7" cx="14.9" cy="41" r="11.9"/>
							<circle class="st7" cx="14.9" cy="41" r="9.1"/>
							<circle class="st7" cx="14.9" cy="41" r="6"/>
						</g>
						<g>
							<circle class="st7" cx="-3.4" cy="41" r="11.9"/>
							<circle class="st7" cx="-3.4" cy="41" r="9.1"/>
							<circle class="st7" cx="-3.4" cy="41" r="6"/>
						</g>
					</g>
					<g>
						<g>
							<circle class="st7" cx="60.9" cy="52.9" r="11.9"/>
							<circle class="st7" cx="60.9" cy="52.9" r="9.1"/>
						</g>
						<g>
							<circle class="st7" cx="42.7" cy="52.9" r="11.9"/>
							<circle class="st7" cx="42.7" cy="52.9" r="9.1"/>
							<circle class="st7" cx="42.7" cy="52.9" r="6"/>
						</g>
						<g>
							<circle class="st7" cx="24.4" cy="52.9" r="11.9"/>
							<circle class="st7" cx="24.4" cy="52.9" r="9.1"/>
							<circle class="st7" cx="24.4" cy="52.9" r="6"/>
						</g>
						<g>
							<circle class="st7" cx="6.1" cy="52.9" r="11.9"/>
							<circle class="st7" cx="6.1" cy="52.9" r="9.1"/>
							<circle class="st7" cx="6.1" cy="52.9" r="6"/>
						</g>
						<g>
							<circle class="st7" cx="-12.1" cy="52.9" r="11.9"/>
						</g>
					</g>
					<g>
						<g>
							<circle class="st7" cx="51.4" cy="64.8" r="11.9"/>
						</g>
						<g>
							<circle class="st7" cx="33.1" cy="64.8" r="11.9"/>
						</g>
						<g>
							<circle class="st7" cx="14.9" cy="64.8" r="11.9"/>
						</g>
						<g>
							<circle class="st7" cx="-3.4" cy="64.8" r="11.9"/>
						</g>
					</g>
				</g>
			</g>
		</g>
	</g>
	<g class="st1">
		<defs>
			<path id="SVGID_7_" d="M7.8,15c-1.1-1-2.8-0.8-3.8,0.3c-1,1.1-0.8,2.8,0.3,3.8c1.1,1,2.8,0.8,3.8-0.3C9.1,17.7,9,16,7.8,15z"/>
		</defs>
		<clipPath id="SVGID_8_" class="st2">
			<use xlink:href="#SVGID_7_"  style="overflow:visible;"/>
		</clipPath>
		<g class="st8">
			<defs>
				<rect id="SVGID_9_" x="-269.4" y="-155.4" width="596.3" height="255.6"/>
			</defs>
			<clipPath id="SVGID_10_">
				<use xlink:href="#SVGID_9_"  style="overflow:visible;"/>
			</clipPath>
			<g class="st9">
				<defs>
					<rect id="SVGID_11_" x="-269.4" y="-211.3" class="st5" width="596.3" height="397.5"/>
				</defs>
				<clipPath id="SVGID_12_">
					<use xlink:href="#SVGID_11_"  style="overflow:visible;"/>
				</clipPath>
				<g class="st10">
					<g>
						<g>
							<circle class="st7" cx="51.4" cy="-6.6" r="11.9"/>
							<circle class="st7" cx="51.4" cy="-6.6" r="9.1"/>
						</g>
						<g>
							<circle class="st7" cx="33.1" cy="-6.6" r="11.9"/>
							<circle class="st7" cx="33.1" cy="-6.6" r="9.1"/>
						</g>
						<g>
							<circle class="st7" cx="14.9" cy="-6.6" r="11.9"/>
							<circle class="st7" cx="14.9" cy="-6.6" r="9.1"/>
						</g>
						<g>
							<circle class="st7" cx="-3.4" cy="-6.6" r="11.9"/>
							<circle class="st7" cx="-3.4" cy="-6.6" r="9.1"/>
						</g>
					</g>
					<g>
						<g>
							<circle class="st7" cx="60.9" cy="5.3" r="11.9"/>
							<circle class="st7" cx="60.9" cy="5.3" r="9.1"/>
						</g>
						<g>
							<circle class="st7" cx="42.7" cy="5.3" r="11.9"/>
							<circle class="st7" cx="42.7" cy="5.3" r="9.1"/>
							<circle class="st7" cx="42.7" cy="5.3" r="6"/>
						</g>
						<g>
							<circle class="st7" cx="24.4" cy="5.3" r="11.9"/>
							<circle class="st7" cx="24.4" cy="5.3" r="9.1"/>
							<circle class="st7" cx="24.4" cy="5.3" r="6"/>
						</g>
						<g>
							<circle class="st7" cx="6.1" cy="5.3" r="11.9"/>
							<circle class="st7" cx="6.1" cy="5.3" r="9.1"/>
							<circle class="st7" cx="6.1" cy="5.3" r="6"/>
						</g>
						<g>
							<circle class="st7" cx="-12.1" cy="5.3" r="11.9"/>
						</g>
					</g>
					<g>
						<g>
							<circle class="st7" cx="51.4" cy="17.2" r="11.9"/>
							<circle class="st7" cx="51.4" cy="17.2" r="9.1"/>
							<circle class="st7" cx="51.4" cy="17.2" r="6"/>
						</g>
						<g>
							<circle class="st7" cx="33.1" cy="17.2" r="11.9"/>
							<circle class="st7" cx="33.1" cy="17.2" r="9.1"/>
							<circle class="st7" cx="33.1" cy="17.2" r="6"/>
						</g>
						<g>
							<circle class="st7" cx="14.9" cy="17.2" r="11.9"/>
							<circle class="st7" cx="14.9" cy="17.2" r="9.1"/>
							<circle class="st7" cx="14.9" cy="17.2" r="6"/>
						</g>
						<g>
							<circle class="st7" cx="-3.4" cy="17.2" r="11.9"/>
							<circle class="st7" cx="-3.4" cy="17.2" r="9.1"/>
							<circle class="st7" cx="-3.4" cy="17.2" r="6"/>
						</g>
					</g>
					<g>
						<g>
							<circle class="st7" cx="60.9" cy="29.1" r="11.9"/>
							<circle class="st7" cx="60.9" cy="29.1" r="9.1"/>
						</g>
						<g>
							<circle class="st7" cx="42.7" cy="29.1" r="11.9"/>
							<circle class="st7" cx="42.7" cy="29.1" r="9.1"/>
							<circle class="st7" cx="42.7" cy="29.1" r="6"/>
						</g>
						<g>
							<circle class="st7" cx="24.4" cy="29.1" r="11.9"/>
							<circle class="st7" cx="24.4" cy="29.1" r="9.1"/>
							<circle class="st7" cx="24.4" cy="29.1" r="6"/>
						</g>
						<g>
							<circle class="st7" cx="6.1" cy="29.1" r="11.9"/>
							<circle class="st7" cx="6.1" cy="29.1" r="9.1"/>
							<circle class="st7" cx="6.1" cy="29.1" r="6"/>
						</g>
						<g>
							<circle class="st7" cx="-12.1" cy="29.1" r="11.9"/>
						</g>
					</g>
					<g>
						<g>
							<circle class="st7" cx="51.4" cy="41" r="11.9"/>
							<circle class="st7" cx="51.4" cy="41" r="9.1"/>
							<circle class="st7" cx="51.4" cy="41" r="6"/>
						</g>
						<g>
							<circle class="st7" cx="33.1" cy="41" r="11.9"/>
							<circle class="st7" cx="33.1" cy="41" r="9.1"/>
							<circle class="st7" cx="33.1" cy="41" r="6"/>
						</g>
						<g>
							<circle class="st7" cx="14.9" cy="41" r="11.9"/>
							<circle class="st7" cx="14.9" cy="41" r="9.1"/>
							<circle class="st7" cx="14.9" cy="41" r="6"/>
						</g>
						<g>
							<circle class="st7" cx="-3.4" cy="41" r="11.9"/>
							<circle class="st7" cx="-3.4" cy="41" r="9.1"/>
							<circle class="st7" cx="-3.4" cy="41" r="6"/>
						</g>
					</g>
					<g>
						<g>
							<circle class="st7" cx="60.9" cy="52.9" r="11.9"/>
							<circle class="st7" cx="60.9" cy="52.9" r="9.1"/>
						</g>
						<g>
							<circle class="st7" cx="42.7" cy="52.9" r="11.9"/>
							<circle class="st7" cx="42.7" cy="52.9" r="9.1"/>
							<circle class="st7" cx="42.7" cy="52.9" r="6"/>
						</g>
						<g>
							<circle class="st7" cx="24.4" cy="52.9" r="11.9"/>
							<circle class="st7" cx="24.4" cy="52.9" r="9.1"/>
							<circle class="st7" cx="24.4" cy="52.9" r="6"/>
						</g>
						<g>
							<circle class="st7" cx="6.1" cy="52.9" r="11.9"/>
							<circle class="st7" cx="6.1" cy="52.9" r="9.1"/>
							<circle class="st7" cx="6.1" cy="52.9" r="6"/>
						</g>
						<g>
							<circle class="st7" cx="-12.1" cy="52.9" r="11.9"/>
						</g>
					</g>
					<g>
						<g>
							<circle class="st7" cx="51.4" cy="64.8" r="11.9"/>
						</g>
						<g>
							<circle class="st7" cx="33.1" cy="64.8" r="11.9"/>
						</g>
						<g>
							<circle class="st7" cx="14.9" cy="64.8" r="11.9"/>
						</g>
						<g>
							<circle class="st7" cx="-3.4" cy="64.8" r="11.9"/>
						</g>
					</g>
				</g>
			</g>
		</g>
	</g>
	<g class="st1">
		<defs>
			<path id="SVGID_13_" d="M11.6,11.8c0.7,0,1.3-0.6,1.3-1.3c0-0.7-0.6-1.3-1.3-1.3s-1.3,0.6-1.3,1.3C10.3,11.2,10.9,11.8,11.6,11.8
				z"/>
		</defs>
		<clipPath id="SVGID_14_" class="st2">
			<use xlink:href="#SVGID_13_"  style="overflow:visible;"/>
		</clipPath>
		<g class="st11">
			<defs>
				<rect id="SVGID_15_" x="-269.4" y="-155.4" width="596.3" height="255.6"/>
			</defs>
			<clipPath id="SVGID_16_">
				<use xlink:href="#SVGID_15_"  style="overflow:visible;"/>
			</clipPath>
			<g class="st12">
				<defs>
					<rect id="SVGID_17_" x="-269.4" y="-211.3" class="st5" width="596.3" height="397.5"/>
				</defs>
				<clipPath id="SVGID_18_">
					<use xlink:href="#SVGID_17_"  style="overflow:visible;"/>
				</clipPath>
				<g class="st13">
					<g>
						<g>
							<circle class="st7" cx="51.4" cy="-6.6" r="11.9"/>
							<circle class="st7" cx="51.4" cy="-6.6" r="9.1"/>
						</g>
						<g>
							<circle class="st7" cx="33.1" cy="-6.6" r="11.9"/>
							<circle class="st7" cx="33.1" cy="-6.6" r="9.1"/>
						</g>
						<g>
							<circle class="st7" cx="14.9" cy="-6.6" r="11.9"/>
							<circle class="st7" cx="14.9" cy="-6.6" r="9.1"/>
						</g>
						<g>
							<circle class="st7" cx="-3.4" cy="-6.6" r="11.9"/>
							<circle class="st7" cx="-3.4" cy="-6.6" r="9.1"/>
						</g>
					</g>
					<g>
						<g>
							<circle class="st7" cx="60.9" cy="5.3" r="11.9"/>
							<circle class="st7" cx="60.9" cy="5.3" r="9.1"/>
						</g>
						<g>
							<circle class="st7" cx="42.7" cy="5.3" r="11.9"/>
							<circle class="st7" cx="42.7" cy="5.3" r="9.1"/>
							<circle class="st7" cx="42.7" cy="5.3" r="6"/>
						</g>
						<g>
							<circle class="st7" cx="24.4" cy="5.3" r="11.9"/>
							<circle class="st7" cx="24.4" cy="5.3" r="9.1"/>
							<circle class="st7" cx="24.4" cy="5.3" r="6"/>
						</g>
						<g>
							<circle class="st7" cx="6.1" cy="5.3" r="11.9"/>
							<circle class="st7" cx="6.1" cy="5.3" r="9.1"/>
							<circle class="st7" cx="6.1" cy="5.3" r="6"/>
						</g>
						<g>
							<circle class="st7" cx="-12.1" cy="5.3" r="11.9"/>
						</g>
					</g>
					<g>
						<g>
							<circle class="st7" cx="51.4" cy="17.2" r="11.9"/>
							<circle class="st7" cx="51.4" cy="17.2" r="9.1"/>
							<circle class="st7" cx="51.4" cy="17.2" r="6"/>
						</g>
						<g>
							<circle class="st7" cx="33.1" cy="17.2" r="11.9"/>
							<circle class="st7" cx="33.1" cy="17.2" r="9.1"/>
							<circle class="st7" cx="33.1" cy="17.2" r="6"/>
						</g>
						<g>
							<circle class="st7" cx="14.9" cy="17.2" r="11.9"/>
							<circle class="st7" cx="14.9" cy="17.2" r="9.1"/>
							<circle class="st7" cx="14.9" cy="17.2" r="6"/>
						</g>
						<g>
							<circle class="st7" cx="-3.4" cy="17.2" r="11.9"/>
							<circle class="st7" cx="-3.4" cy="17.2" r="9.1"/>
							<circle class="st7" cx="-3.4" cy="17.2" r="6"/>
						</g>
					</g>
					<g>
						<g>
							<circle class="st7" cx="60.9" cy="29.1" r="11.9"/>
							<circle class="st7" cx="60.9" cy="29.1" r="9.1"/>
						</g>
						<g>
							<circle class="st7" cx="42.7" cy="29.1" r="11.9"/>
							<circle class="st7" cx="42.7" cy="29.1" r="9.1"/>
							<circle class="st7" cx="42.7" cy="29.1" r="6"/>
						</g>
						<g>
							<circle class="st7" cx="24.4" cy="29.1" r="11.9"/>
							<circle class="st7" cx="24.4" cy="29.1" r="9.1"/>
							<circle class="st7" cx="24.4" cy="29.1" r="6"/>
						</g>
						<g>
							<circle class="st7" cx="6.1" cy="29.1" r="11.9"/>
							<circle class="st7" cx="6.1" cy="29.1" r="9.1"/>
							<circle class="st7" cx="6.1" cy="29.1" r="6"/>
						</g>
						<g>
							<circle class="st7" cx="-12.1" cy="29.1" r="11.9"/>
						</g>
					</g>
					<g>
						<g>
							<circle class="st7" cx="51.4" cy="41" r="11.9"/>
							<circle class="st7" cx="51.4" cy="41" r="9.1"/>
							<circle class="st7" cx="51.4" cy="41" r="6"/>
						</g>
						<g>
							<circle class="st7" cx="33.1" cy="41" r="11.9"/>
							<circle class="st7" cx="33.1" cy="41" r="9.1"/>
							<circle class="st7" cx="33.1" cy="41" r="6"/>
						</g>
						<g>
							<circle class="st7" cx="14.9" cy="41" r="11.9"/>
							<circle class="st7" cx="14.9" cy="41" r="9.1"/>
							<circle class="st7" cx="14.9" cy="41" r="6"/>
						</g>
						<g>
							<circle class="st7" cx="-3.4" cy="41" r="11.9"/>
							<circle class="st7" cx="-3.4" cy="41" r="9.1"/>
							<circle class="st7" cx="-3.4" cy="41" r="6"/>
						</g>
					</g>
					<g>
						<g>
							<circle class="st7" cx="60.9" cy="52.9" r="11.9"/>
							<circle class="st7" cx="60.9" cy="52.9" r="9.1"/>
						</g>
						<g>
							<circle class="st7" cx="42.7" cy="52.9" r="11.9"/>
							<circle class="st7" cx="42.7" cy="52.9" r="9.1"/>
							<circle class="st7" cx="42.7" cy="52.9" r="6"/>
						</g>
						<g>
							<circle class="st7" cx="24.4" cy="52.9" r="11.9"/>
							<circle class="st7" cx="24.4" cy="52.9" r="9.1"/>
							<circle class="st7" cx="24.4" cy="52.9" r="6"/>
						</g>
						<g>
							<circle class="st7" cx="6.1" cy="52.9" r="11.9"/>
							<circle class="st7" cx="6.1" cy="52.9" r="9.1"/>
							<circle class="st7" cx="6.1" cy="52.9" r="6"/>
						</g>
						<g>
							<circle class="st7" cx="-12.1" cy="52.9" r="11.9"/>
						</g>
					</g>
					<g>
						<g>
							<circle class="st7" cx="51.4" cy="64.8" r="11.9"/>
						</g>
						<g>
							<circle class="st7" cx="33.1" cy="64.8" r="11.9"/>
						</g>
						<g>
							<circle class="st7" cx="14.9" cy="64.8" r="11.9"/>
						</g>
						<g>
							<circle class="st7" cx="-3.4" cy="64.8" r="11.9"/>
						</g>
					</g>
				</g>
			</g>
		</g>
	</g>
	<g class="st1">
		<defs>
			<path id="SVGID_19_" d="M8.1,38.3c1-1.1,0.8-2.8-0.3-3.8c-1.1-1-2.8-0.8-3.8,0.3c-1,1.1-0.8,2.8,0.3,3.8
				C5.5,39.5,7.1,39.4,8.1,38.3z"/>
		</defs>
		<clipPath id="SVGID_20_" class="st2">
			<use xlink:href="#SVGID_19_"  style="overflow:visible;"/>
		</clipPath>
		<g class="st14">
			<defs>
				<rect id="SVGID_21_" x="-269.4" y="-155.4" width="596.3" height="255.6"/>
			</defs>
			<clipPath id="SVGID_22_">
				<use xlink:href="#SVGID_21_"  style="overflow:visible;"/>
			</clipPath>
			<g class="st15">
				<defs>
					<rect id="SVGID_23_" x="-269.4" y="-211.3" class="st5" width="596.3" height="397.5"/>
				</defs>
				<clipPath id="SVGID_24_">
					<use xlink:href="#SVGID_23_"  style="overflow:visible;"/>
				</clipPath>
				<g class="st16">
					<g>
						<g>
							<circle class="st7" cx="51.4" cy="-6.6" r="11.9"/>
							<circle class="st7" cx="51.4" cy="-6.6" r="9.1"/>
						</g>
						<g>
							<circle class="st7" cx="33.1" cy="-6.6" r="11.9"/>
							<circle class="st7" cx="33.1" cy="-6.6" r="9.1"/>
						</g>
						<g>
							<circle class="st7" cx="14.9" cy="-6.6" r="11.9"/>
							<circle class="st7" cx="14.9" cy="-6.6" r="9.1"/>
						</g>
						<g>
							<circle class="st7" cx="-3.4" cy="-6.6" r="11.9"/>
							<circle class="st7" cx="-3.4" cy="-6.6" r="9.1"/>
						</g>
					</g>
					<g>
						<g>
							<circle class="st7" cx="60.9" cy="5.3" r="11.9"/>
							<circle class="st7" cx="60.9" cy="5.3" r="9.1"/>
						</g>
						<g>
							<circle class="st7" cx="42.7" cy="5.3" r="11.9"/>
							<circle class="st7" cx="42.7" cy="5.3" r="9.1"/>
							<circle class="st7" cx="42.7" cy="5.3" r="6"/>
						</g>
						<g>
							<circle class="st7" cx="24.4" cy="5.3" r="11.9"/>
							<circle class="st7" cx="24.4" cy="5.3" r="9.1"/>
							<circle class="st7" cx="24.4" cy="5.3" r="6"/>
						</g>
						<g>
							<circle class="st7" cx="6.1" cy="5.3" r="11.9"/>
							<circle class="st7" cx="6.1" cy="5.3" r="9.1"/>
							<circle class="st7" cx="6.1" cy="5.3" r="6"/>
						</g>
						<g>
							<circle class="st7" cx="-12.1" cy="5.3" r="11.9"/>
						</g>
					</g>
					<g>
						<g>
							<circle class="st7" cx="51.4" cy="17.2" r="11.9"/>
							<circle class="st7" cx="51.4" cy="17.2" r="9.1"/>
							<circle class="st7" cx="51.4" cy="17.2" r="6"/>
						</g>
						<g>
							<circle class="st7" cx="33.1" cy="17.2" r="11.9"/>
							<circle class="st7" cx="33.1" cy="17.2" r="9.1"/>
							<circle class="st7" cx="33.1" cy="17.2" r="6"/>
						</g>
						<g>
							<circle class="st7" cx="14.9" cy="17.2" r="11.9"/>
							<circle class="st7" cx="14.9" cy="17.2" r="9.1"/>
							<circle class="st7" cx="14.9" cy="17.2" r="6"/>
						</g>
						<g>
							<circle class="st7" cx="-3.4" cy="17.2" r="11.9"/>
							<circle class="st7" cx="-3.4" cy="17.2" r="9.1"/>
							<circle class="st7" cx="-3.4" cy="17.2" r="6"/>
						</g>
					</g>
					<g>
						<g>
							<circle class="st7" cx="60.9" cy="29.1" r="11.9"/>
							<circle class="st7" cx="60.9" cy="29.1" r="9.1"/>
						</g>
						<g>
							<circle class="st7" cx="42.7" cy="29.1" r="11.9"/>
							<circle class="st7" cx="42.7" cy="29.1" r="9.1"/>
							<circle class="st7" cx="42.7" cy="29.1" r="6"/>
						</g>
						<g>
							<circle class="st7" cx="24.4" cy="29.1" r="11.9"/>
							<circle class="st7" cx="24.4" cy="29.1" r="9.1"/>
							<circle class="st7" cx="24.4" cy="29.1" r="6"/>
						</g>
						<g>
							<circle class="st7" cx="6.1" cy="29.1" r="11.9"/>
							<circle class="st7" cx="6.1" cy="29.1" r="9.1"/>
							<circle class="st7" cx="6.1" cy="29.1" r="6"/>
						</g>
						<g>
							<circle class="st7" cx="-12.1" cy="29.1" r="11.9"/>
						</g>
					</g>
					<g>
						<g>
							<circle class="st7" cx="51.4" cy="41" r="11.9"/>
							<circle class="st7" cx="51.4" cy="41" r="9.1"/>
							<circle class="st7" cx="51.4" cy="41" r="6"/>
						</g>
						<g>
							<circle class="st7" cx="33.1" cy="41" r="11.9"/>
							<circle class="st7" cx="33.1" cy="41" r="9.1"/>
							<circle class="st7" cx="33.1" cy="41" r="6"/>
						</g>
						<g>
							<circle class="st7" cx="14.9" cy="41" r="11.9"/>
							<circle class="st7" cx="14.9" cy="41" r="9.1"/>
							<circle class="st7" cx="14.9" cy="41" r="6"/>
						</g>
						<g>
							<circle class="st7" cx="-3.4" cy="41" r="11.9"/>
							<circle class="st7" cx="-3.4" cy="41" r="9.1"/>
							<circle class="st7" cx="-3.4" cy="41" r="6"/>
						</g>
					</g>
					<g>
						<g>
							<circle class="st7" cx="60.9" cy="52.9" r="11.9"/>
							<circle class="st7" cx="60.9" cy="52.9" r="9.1"/>
						</g>
						<g>
							<circle class="st7" cx="42.7" cy="52.9" r="11.9"/>
							<circle class="st7" cx="42.7" cy="52.9" r="9.1"/>
							<circle class="st7" cx="42.7" cy="52.9" r="6"/>
						</g>
						<g>
							<circle class="st7" cx="24.4" cy="52.9" r="11.9"/>
							<circle class="st7" cx="24.4" cy="52.9" r="9.1"/>
							<circle class="st7" cx="24.4" cy="52.9" r="6"/>
						</g>
						<g>
							<circle class="st7" cx="6.1" cy="52.9" r="11.9"/>
							<circle class="st7" cx="6.1" cy="52.9" r="9.1"/>
							<circle class="st7" cx="6.1" cy="52.9" r="6"/>
						</g>
						<g>
							<circle class="st7" cx="-12.1" cy="52.9" r="11.9"/>
						</g>
					</g>
					<g>
						<g>
							<circle class="st7" cx="51.4" cy="64.8" r="11.9"/>
						</g>
						<g>
							<circle class="st7" cx="33.1" cy="64.8" r="11.9"/>
						</g>
						<g>
							<circle class="st7" cx="14.9" cy="64.8" r="11.9"/>
						</g>
						<g>
							<circle class="st7" cx="-3.4" cy="64.8" r="11.9"/>
						</g>
					</g>
				</g>
			</g>
		</g>
	</g>
	<g class="st1">
		<defs>
			<path id="SVGID_25_" d="M10.3,43.6c0,0.7,0.6,1.3,1.3,1.3c0.7,0,1.3-0.6,1.3-1.3s-0.6-1.3-1.3-1.3C10.9,42.3,10.3,42.9,10.3,43.6
				z"/>
		</defs>
		<clipPath id="SVGID_26_" class="st2">
			<use xlink:href="#SVGID_25_"  style="overflow:visible;"/>
		</clipPath>
		<g class="st17">
			<defs>
				<rect id="SVGID_27_" x="-269.4" y="-155.4" width="596.3" height="255.6"/>
			</defs>
			<clipPath id="SVGID_28_">
				<use xlink:href="#SVGID_27_"  style="overflow:visible;"/>
			</clipPath>
			<g class="st18">
				<defs>
					<rect id="SVGID_29_" x="-269.4" y="-211.3" class="st5" width="596.3" height="397.5"/>
				</defs>
				<clipPath id="SVGID_30_">
					<use xlink:href="#SVGID_29_"  style="overflow:visible;"/>
				</clipPath>
				<g class="st19">
					<g>
						<g>
							<circle class="st7" cx="51.4" cy="-6.6" r="11.9"/>
							<circle class="st7" cx="51.4" cy="-6.6" r="9.1"/>
						</g>
						<g>
							<circle class="st7" cx="33.1" cy="-6.6" r="11.9"/>
							<circle class="st7" cx="33.1" cy="-6.6" r="9.1"/>
						</g>
						<g>
							<circle class="st7" cx="14.9" cy="-6.6" r="11.9"/>
							<circle class="st7" cx="14.9" cy="-6.6" r="9.1"/>
						</g>
						<g>
							<circle class="st7" cx="-3.4" cy="-6.6" r="11.9"/>
							<circle class="st7" cx="-3.4" cy="-6.6" r="9.1"/>
						</g>
					</g>
					<g>
						<g>
							<circle class="st7" cx="60.9" cy="5.3" r="11.9"/>
							<circle class="st7" cx="60.9" cy="5.3" r="9.1"/>
						</g>
						<g>
							<circle class="st7" cx="42.7" cy="5.3" r="11.9"/>
							<circle class="st7" cx="42.7" cy="5.3" r="9.1"/>
							<circle class="st7" cx="42.7" cy="5.3" r="6"/>
						</g>
						<g>
							<circle class="st7" cx="24.4" cy="5.3" r="11.9"/>
							<circle class="st7" cx="24.4" cy="5.3" r="9.1"/>
							<circle class="st7" cx="24.4" cy="5.3" r="6"/>
						</g>
						<g>
							<circle class="st7" cx="6.1" cy="5.3" r="11.9"/>
							<circle class="st7" cx="6.1" cy="5.3" r="9.1"/>
							<circle class="st7" cx="6.1" cy="5.3" r="6"/>
						</g>
						<g>
							<circle class="st7" cx="-12.1" cy="5.3" r="11.9"/>
						</g>
					</g>
					<g>
						<g>
							<circle class="st7" cx="51.4" cy="17.2" r="11.9"/>
							<circle class="st7" cx="51.4" cy="17.2" r="9.1"/>
							<circle class="st7" cx="51.4" cy="17.2" r="6"/>
						</g>
						<g>
							<circle class="st7" cx="33.1" cy="17.2" r="11.9"/>
							<circle class="st7" cx="33.1" cy="17.2" r="9.1"/>
							<circle class="st7" cx="33.1" cy="17.2" r="6"/>
						</g>
						<g>
							<circle class="st7" cx="14.9" cy="17.2" r="11.9"/>
							<circle class="st7" cx="14.9" cy="17.2" r="9.1"/>
							<circle class="st7" cx="14.9" cy="17.2" r="6"/>
						</g>
						<g>
							<circle class="st7" cx="-3.4" cy="17.2" r="11.9"/>
							<circle class="st7" cx="-3.4" cy="17.2" r="9.1"/>
							<circle class="st7" cx="-3.4" cy="17.2" r="6"/>
						</g>
					</g>
					<g>
						<g>
							<circle class="st7" cx="60.9" cy="29.1" r="11.9"/>
							<circle class="st7" cx="60.9" cy="29.1" r="9.1"/>
						</g>
						<g>
							<circle class="st7" cx="42.7" cy="29.1" r="11.9"/>
							<circle class="st7" cx="42.7" cy="29.1" r="9.1"/>
							<circle class="st7" cx="42.7" cy="29.1" r="6"/>
						</g>
						<g>
							<circle class="st7" cx="24.4" cy="29.1" r="11.9"/>
							<circle class="st7" cx="24.4" cy="29.1" r="9.1"/>
							<circle class="st7" cx="24.4" cy="29.1" r="6"/>
						</g>
						<g>
							<circle class="st7" cx="6.1" cy="29.1" r="11.9"/>
							<circle class="st7" cx="6.1" cy="29.1" r="9.1"/>
							<circle class="st7" cx="6.1" cy="29.1" r="6"/>
						</g>
						<g>
							<circle class="st7" cx="-12.1" cy="29.1" r="11.9"/>
						</g>
					</g>
					<g>
						<g>
							<circle class="st7" cx="51.4" cy="41" r="11.9"/>
							<circle class="st7" cx="51.4" cy="41" r="9.1"/>
							<circle class="st7" cx="51.4" cy="41" r="6"/>
						</g>
						<g>
							<circle class="st7" cx="33.1" cy="41" r="11.9"/>
							<circle class="st7" cx="33.1" cy="41" r="9.1"/>
							<circle class="st7" cx="33.1" cy="41" r="6"/>
						</g>
						<g>
							<circle class="st7" cx="14.9" cy="41" r="11.9"/>
							<circle class="st7" cx="14.9" cy="41" r="9.1"/>
							<circle class="st7" cx="14.9" cy="41" r="6"/>
						</g>
						<g>
							<circle class="st7" cx="-3.4" cy="41" r="11.9"/>
							<circle class="st7" cx="-3.4" cy="41" r="9.1"/>
							<circle class="st7" cx="-3.4" cy="41" r="6"/>
						</g>
					</g>
					<g>
						<g>
							<circle class="st7" cx="60.9" cy="52.9" r="11.9"/>
							<circle class="st7" cx="60.9" cy="52.9" r="9.1"/>
						</g>
						<g>
							<circle class="st7" cx="42.7" cy="52.9" r="11.9"/>
							<circle class="st7" cx="42.7" cy="52.9" r="9.1"/>
							<circle class="st7" cx="42.7" cy="52.9" r="6"/>
						</g>
						<g>
							<circle class="st7" cx="24.4" cy="52.9" r="11.9"/>
							<circle class="st7" cx="24.4" cy="52.9" r="9.1"/>
							<circle class="st7" cx="24.4" cy="52.9" r="6"/>
						</g>
						<g>
							<circle class="st7" cx="6.1" cy="52.9" r="11.9"/>
							<circle class="st7" cx="6.1" cy="52.9" r="9.1"/>
							<circle class="st7" cx="6.1" cy="52.9" r="6"/>
						</g>
						<g>
							<circle class="st7" cx="-12.1" cy="52.9" r="11.9"/>
						</g>
					</g>
					<g>
						<g>
							<circle class="st7" cx="51.4" cy="64.8" r="11.9"/>
						</g>
						<g>
							<circle class="st7" cx="33.1" cy="64.8" r="11.9"/>
						</g>
						<g>
							<circle class="st7" cx="14.9" cy="64.8" r="11.9"/>
						</g>
						<g>
							<circle class="st7" cx="-3.4" cy="64.8" r="11.9"/>
						</g>
					</g>
				</g>
			</g>
		</g>
	</g>
	<g class="st1">
		<defs>
			<path id="SVGID_31_" d="M7.2,29.8c1.5-1.6,1.5-4.1,0-5.6c-1.6-1.5-4.1-1.5-5.6,0c-1.5,1.6-1.5,4.1,0,5.6
				C3.1,31.4,5.6,31.4,7.2,29.8z"/>
		</defs>
		<clipPath id="SVGID_32_" class="st2">
			<use xlink:href="#SVGID_31_"  style="overflow:visible;"/>
		</clipPath>
		<g class="st20">
			<defs>
				<rect id="SVGID_33_" x="-269.4" y="-155.4" width="596.3" height="255.6"/>
			</defs>
			<clipPath id="SVGID_34_">
				<use xlink:href="#SVGID_33_"  style="overflow:visible;"/>
			</clipPath>
			<g class="st21">
				<defs>
					<rect id="SVGID_35_" x="-269.4" y="-211.3" class="st5" width="596.3" height="397.5"/>
				</defs>
				<clipPath id="SVGID_36_">
					<use xlink:href="#SVGID_35_"  style="overflow:visible;"/>
				</clipPath>
				<g class="st22">
					<g>
						<g>
							<circle class="st7" cx="51.4" cy="-6.6" r="11.9"/>
							<circle class="st7" cx="51.4" cy="-6.6" r="9.1"/>
						</g>
						<g>
							<circle class="st7" cx="33.1" cy="-6.6" r="11.9"/>
							<circle class="st7" cx="33.1" cy="-6.6" r="9.1"/>
						</g>
						<g>
							<circle class="st7" cx="14.9" cy="-6.6" r="11.9"/>
							<circle class="st7" cx="14.9" cy="-6.6" r="9.1"/>
						</g>
						<g>
							<circle class="st7" cx="-3.4" cy="-6.6" r="11.9"/>
							<circle class="st7" cx="-3.4" cy="-6.6" r="9.1"/>
						</g>
					</g>
					<g>
						<g>
							<circle class="st7" cx="60.9" cy="5.3" r="11.9"/>
							<circle class="st7" cx="60.9" cy="5.3" r="9.1"/>
						</g>
						<g>
							<circle class="st7" cx="42.7" cy="5.3" r="11.9"/>
							<circle class="st7" cx="42.7" cy="5.3" r="9.1"/>
							<circle class="st7" cx="42.7" cy="5.3" r="6"/>
						</g>
						<g>
							<circle class="st7" cx="24.4" cy="5.3" r="11.9"/>
							<circle class="st7" cx="24.4" cy="5.3" r="9.1"/>
							<circle class="st7" cx="24.4" cy="5.3" r="6"/>
						</g>
						<g>
							<circle class="st7" cx="6.1" cy="5.3" r="11.9"/>
							<circle class="st7" cx="6.1" cy="5.3" r="9.1"/>
							<circle class="st7" cx="6.1" cy="5.3" r="6"/>
						</g>
						<g>
							<circle class="st7" cx="-12.1" cy="5.3" r="11.9"/>
						</g>
					</g>
					<g>
						<g>
							<circle class="st7" cx="51.4" cy="17.2" r="11.9"/>
							<circle class="st7" cx="51.4" cy="17.2" r="9.1"/>
							<circle class="st7" cx="51.4" cy="17.2" r="6"/>
						</g>
						<g>
							<circle class="st7" cx="33.1" cy="17.2" r="11.9"/>
							<circle class="st7" cx="33.1" cy="17.2" r="9.1"/>
							<circle class="st7" cx="33.1" cy="17.2" r="6"/>
						</g>
						<g>
							<circle class="st7" cx="14.9" cy="17.2" r="11.9"/>
							<circle class="st7" cx="14.9" cy="17.2" r="9.1"/>
							<circle class="st7" cx="14.9" cy="17.2" r="6"/>
						</g>
						<g>
							<circle class="st7" cx="-3.4" cy="17.2" r="11.9"/>
							<circle class="st7" cx="-3.4" cy="17.2" r="9.1"/>
							<circle class="st7" cx="-3.4" cy="17.2" r="6"/>
						</g>
					</g>
					<g>
						<g>
							<circle class="st7" cx="60.9" cy="29.1" r="11.9"/>
							<circle class="st7" cx="60.9" cy="29.1" r="9.1"/>
						</g>
						<g>
							<circle class="st7" cx="42.7" cy="29.1" r="11.9"/>
							<circle class="st7" cx="42.7" cy="29.1" r="9.1"/>
							<circle class="st7" cx="42.7" cy="29.1" r="6"/>
						</g>
						<g>
							<circle class="st7" cx="24.4" cy="29.1" r="11.9"/>
							<circle class="st7" cx="24.4" cy="29.1" r="9.1"/>
							<circle class="st7" cx="24.4" cy="29.1" r="6"/>
						</g>
						<g>
							<circle class="st7" cx="6.1" cy="29.1" r="11.9"/>
							<circle class="st7" cx="6.1" cy="29.1" r="9.1"/>
							<circle class="st7" cx="6.1" cy="29.1" r="6"/>
						</g>
						<g>
							<circle class="st7" cx="-12.1" cy="29.1" r="11.9"/>
						</g>
					</g>
					<g>
						<g>
							<circle class="st7" cx="51.4" cy="41" r="11.9"/>
							<circle class="st7" cx="51.4" cy="41" r="9.1"/>
							<circle class="st7" cx="51.4" cy="41" r="6"/>
						</g>
						<g>
							<circle class="st7" cx="33.1" cy="41" r="11.9"/>
							<circle class="st7" cx="33.1" cy="41" r="9.1"/>
							<circle class="st7" cx="33.1" cy="41" r="6"/>
						</g>
						<g>
							<circle class="st7" cx="14.9" cy="41" r="11.9"/>
							<circle class="st7" cx="14.9" cy="41" r="9.1"/>
							<circle class="st7" cx="14.9" cy="41" r="6"/>
						</g>
						<g>
							<circle class="st7" cx="-3.4" cy="41" r="11.9"/>
							<circle class="st7" cx="-3.4" cy="41" r="9.1"/>
							<circle class="st7" cx="-3.4" cy="41" r="6"/>
						</g>
					</g>
					<g>
						<g>
							<circle class="st7" cx="60.9" cy="52.9" r="11.9"/>
							<circle class="st7" cx="60.9" cy="52.9" r="9.1"/>
						</g>
						<g>
							<circle class="st7" cx="42.7" cy="52.9" r="11.9"/>
							<circle class="st7" cx="42.7" cy="52.9" r="9.1"/>
							<circle class="st7" cx="42.7" cy="52.9" r="6"/>
						</g>
						<g>
							<circle class="st7" cx="24.4" cy="52.9" r="11.9"/>
							<circle class="st7" cx="24.4" cy="52.9" r="9.1"/>
							<circle class="st7" cx="24.4" cy="52.9" r="6"/>
						</g>
						<g>
							<circle class="st7" cx="6.1" cy="52.9" r="11.9"/>
							<circle class="st7" cx="6.1" cy="52.9" r="9.1"/>
							<circle class="st7" cx="6.1" cy="52.9" r="6"/>
						</g>
						<g>
							<circle class="st7" cx="-12.1" cy="52.9" r="11.9"/>
						</g>
					</g>
					<g>
						<g>
							<circle class="st7" cx="51.4" cy="64.8" r="11.9"/>
						</g>
						<g>
							<circle class="st7" cx="33.1" cy="64.8" r="11.9"/>
						</g>
						<g>
							<circle class="st7" cx="14.9" cy="64.8" r="11.9"/>
						</g>
						<g>
							<circle class="st7" cx="-3.4" cy="64.8" r="11.9"/>
						</g>
					</g>
				</g>
			</g>
		</g>
	</g>
</g>
<g id="Layer_2">
</g>
</svg>
